<svg xmlns="http://www.w3.org/2000/svg" viewBox="0 0 256 256" role="img" aria-labelledby="t d"><title id="t">Crowd Orbit</title><desc id="d">A gold C surrounded by orbital paths and people nodes.</desc><defs><linearGradient id="g" x1="0" y1="0" x2="1" y2="1"><stop stop-color="#ffd77a"/><stop offset="1" stop-color="#b9892f"/></linearGradient><linearGradient id="p" x1="0" y1="0" x2="1" y2="1"><stop stop-color="#c4aaff"/><stop offset="1" stop-color="#6f45f5"/></linearGradient><filter id="glow"><feGaussianBlur stdDeviation="3" result="b"/><feMerge><feMergeNode in="b"/><feMergeNode in="SourceGraphic"/></feMerge></filter></defs><rect width="256" height="256" rx="58" fill="#090a10"/><ellipse cx="128" cy="128" rx="91" ry="58" fill="none" stroke="#7b57f5" stroke-width="4" opacity=".82" transform="rotate(-24 128 128)"/><ellipse cx="128" cy="128" rx="103" ry="75" fill="none" stroke="#c99a3c" stroke-width="2.5" opacity=".62" transform="rotate(25 128 128)"/><path d="M169 82c-11-13-25-20-42-20-36 0-62 27-62 66s26 66 62 66c19 0 34-7 45-21l-22-20c-6 7-14 11-23 11-18 0-31-14-31-36 0-21 13-36 31-36 9 0 17 4 23 11z" fill="url(#g)"/>
<!-- person-shaped orbit node -->
<g transform="translate(191 55)" filter="url(#glow)"><circle cx="14" cy="11" r="9" fill="url(#p)"/><path d="M1 33c2-9 7-14 13-14s12 5 14 14c-4 4-9 6-14 6S5 37 1 33z" fill="url(#p)"/><circle cx="14" cy="20" r="22" fill="none" stroke="#a984ff" stroke-width="2.5" opacity=".42"/></g>
<circle cx="53" cy="172" r="11" fill="url(#p)"/><circle cx="183" cy="199" r="10" fill="url(#g)"/><circle cx="79" cy="55" r="8" fill="url(#g)"/><circle cx="53" cy="172" r="17" fill="none" stroke="#805cf4" stroke-width="2" opacity=".35"/></svg>